<svg width="63" height="52" viewBox="0 0 63 52" fill="none" xmlns="http://www.w3.org/2000/svg">
<path d="M56.7578 8.53035H47.8221L43.1571 0.741211H19.8417L15.1786 8.53035H6.24097C4.29802 8.53035 0.412109 10.4776 0.412109 14.3118V45.5288C0.412109 48.7554 3.32654 51.3706 5.83684 51.3706H56.8802C59.4313 51.3706 62.5886 48.6327 62.5886 45.5911V14.3722C62.5886 12.4249 60.6437 8.53035 56.7578 8.53035ZM58.7007 45.5911C58.7007 46.3603 57.4592 47.4352 56.8802 47.478H5.8485C5.39773 47.441 4.29996 46.5628 4.29996 45.5307V14.3138C4.29996 13.0792 5.95341 12.458 6.24291 12.4269H17.3799L22.043 4.63773H41.0879L44.556 10.538L45.6247 12.4269H56.7597C58.1295 12.4269 58.6832 14.2203 58.7027 14.3742V45.593L58.7007 45.5911ZM31.4994 14.3722C23.9879 14.3722 17.8987 20.475 17.8987 28.0032C17.8987 35.5314 23.9879 41.6342 31.4994 41.6342C39.0108 41.6342 45.1001 35.5314 45.1001 28.0032C45.1001 20.475 39.0108 14.3722 31.4994 14.3722ZM31.4994 37.7396C26.1427 37.7396 21.7846 33.3719 21.7846 28.0032C21.7846 22.6345 26.1427 18.2668 31.4994 18.2668C36.8561 18.2668 41.2141 22.6345 41.2141 28.0032C41.2141 33.3719 36.8561 37.7396 31.4994 37.7396Z" fill="black"/>
</svg>
