<svg width="65" height="42" viewBox="0 0 65 42" fill="none" xmlns="http://www.w3.org/2000/svg">
<path d="M30.7049 0.418686C29.8986 0.827812 29.2628 1.50855 28.918 2.34246L21.6717 19.8644L6.78817 1.72915C5.46297 0.114399 3.05912 -0.137034 1.41885 1.16754C0.521614 1.88114 7.62939e-05 2.9558 7.62939e-05 4.0913V36.3619C7.62939e-05 39.4757 2.56427 42 5.72735 42H59.1819C62.345 42 64.9092 39.4757 64.9092 36.3619V4.09043C64.9092 2.01454 63.1997 0.331702 61.091 0.331702C59.9377 0.331702 58.8462 0.844922 58.1213 1.72801L43.2338 19.8643L35.9908 2.34295C35.2338 0.511735 33.1771 -0.413931 31.2957 0.177981L31.0151 0.278219L30.7049 0.418686Z" fill="url(#paint0_linear_302_1065)"/>
<defs>
<linearGradient id="paint0_linear_302_1065" x1="-3180.55" y1="0" x2="-3180.55" y2="4200" gradientUnits="userSpaceOnUse">
<stop stop-color="#FFC923"/>
<stop offset="1" stop-color="#FFAD41"/>
</linearGradient>
</defs>
</svg>
