<svg width="35" height="35" viewBox="0 0 35 35" fill="none" xmlns="http://www.w3.org/2000/svg">
<path d="M24.4999 24.5003C26.2915 22.7089 27.3996 20.2339 27.3996 17.5C27.3996 12.0324 22.9672 7.60001 17.4996 7.60001C12.032 7.60001 7.59961 12.0324 7.59961 17.5C7.59961 20.2339 8.7077 22.7089 10.4993 24.5003" stroke="white" stroke-width="2" stroke-linecap="round"/>
<path d="M29.1673 29.1673C32.1532 26.1813 34 22.0563 34 17.5C34 8.3873 26.6126 1 17.5 1C8.3873 1 1 8.3873 1 17.5C1 22.0563 2.84683 26.1813 5.83273 29.1673" stroke="white" stroke-width="2" stroke-linecap="round"/>
<path d="M17.5002 20.8C19.3227 20.8 20.8002 19.3225 20.8002 17.5C20.8002 15.6775 19.3227 14.2 17.5002 14.2C15.6777 14.2 14.2002 15.6775 14.2002 17.5C14.2002 19.3225 15.6777 20.8 17.5002 20.8Z" stroke="white" stroke-width="2"/>
<path d="M14.0141 26.3178C15.5971 24.8727 16.3886 24.1502 17.3659 24.1033C17.4553 24.0988 17.5447 24.0988 17.6341 24.1033C18.6114 24.1502 19.4029 24.8727 20.9858 26.3178C24.4302 29.462 26.1524 31.0341 25.6703 32.3904C25.6289 32.5071 25.5774 32.6204 25.5164 32.7297C24.8065 34 22.3711 34 17.5 34C12.6289 34 10.1934 34 9.48366 32.7297C9.42264 32.6204 9.37118 32.5071 9.32973 32.3904C8.8476 31.0341 10.5698 29.462 14.0141 26.3178Z" stroke="white" stroke-width="2"/>
</svg>
