<svg width="33" height="42" viewBox="0 0 33 42" fill="none" xmlns="http://www.w3.org/2000/svg">
<path d="M26.7399 27.2853C25.3622 26.4701 23.9029 25.826 22.4029 25.3614C21.8812 25.1983 21.3187 25.4266 21.0578 25.9076L16.5008 34.1901L11.9519 25.9076C11.691 25.4266 11.1285 25.1983 10.6068 25.3614C9.09046 25.826 7.62308 26.4782 6.25351 27.2853C3.62037 28.8586 1.97363 31.7853 1.97363 34.932V40.2635C1.97363 40.8994 2.48722 41.413 3.12309 41.413H29.8703C30.5062 41.413 31.0198 40.8994 31.0198 40.2635V34.932C31.0198 31.7853 29.3812 28.8586 26.7399 27.2853ZM28.729 39.114H28.7208H4.28069V37.4592H6.98721C7.62308 37.4592 8.13666 36.9456 8.13666 36.3097C8.13666 35.6738 7.62308 35.1602 6.98721 35.1602H4.28069C4.28069 35.1602 4.19917 35.0787 4.42743 33.595H9.28612C9.92198 33.595 10.4356 33.0815 10.4356 32.4456C10.4356 31.8097 9.92198 31.2961 9.28612 31.2961H5.36493C5.89482 30.4809 6.58775 29.7798 7.43558 29.2744C8.38123 28.7119 9.37579 28.2391 10.403 27.8641L15.4981 37.1412C15.7019 37.5081 16.085 37.7363 16.5089 37.7363C16.9247 37.7363 17.316 37.5081 17.5198 37.1412L22.6149 27.8641C23.6339 28.2391 24.6285 28.7119 25.5741 29.2744C27.5225 30.432 28.729 32.6086 28.729 34.9483V39.114Z" fill="white"/>
<path d="M16.5002 8.47824C12.0736 8.47824 8.47852 12.0815 8.47852 16.5C8.47852 20.9184 12.0736 24.5298 16.5002 24.5298C20.9269 24.5298 24.522 20.9266 24.522 16.5081C24.522 12.0896 20.9269 8.47824 16.5002 8.47824ZM16.5002 22.2228C13.3454 22.2228 10.7774 19.6548 10.7774 16.5C10.7774 13.3451 13.3454 10.7771 16.5002 10.7771C19.6551 10.7771 22.223 13.3451 22.223 16.5C22.223 19.6548 19.6551 22.2228 16.5002 22.2228Z" fill="white"/>
<path d="M16.5 0C15.8642 0 15.3506 0.513586 15.3506 1.14945V4.08423C15.3506 4.7201 15.8642 5.23368 16.5 5.23368C17.1359 5.23368 17.6495 4.7201 17.6495 4.08423V1.14945C17.6495 0.513586 17.1359 0 16.5 0Z" fill="white"/>
<path d="M8.53574 6.90488L6.45694 4.82608C6.00857 4.37772 5.28303 4.37772 4.82651 4.82608C4.37814 5.27445 4.37814 5.99999 4.82651 6.45651L6.90531 8.53531C7.28846 8.89401 8.09552 8.94292 8.53574 8.53531C9.00041 8.10325 8.98411 7.3614 8.53574 6.90488Z" fill="white"/>
<path d="M4.08423 15.3505H1.14945C0.513586 15.3505 0 15.8641 0 16.4999C0 17.1358 0.513586 17.6494 1.14945 17.6494H4.08423C4.7201 17.6494 5.23368 17.1358 5.23368 16.4999C5.23368 15.8641 4.7201 15.3505 4.08423 15.3505Z" fill="white"/>
<path d="M31.8499 15.3505H28.9151C28.2792 15.3505 27.7656 15.8641 27.7656 16.5C27.7656 17.1358 28.2792 17.6494 28.9151 17.6494H31.8499C32.4857 17.6494 32.9993 17.1358 32.9993 16.5C32.9993 15.8641 32.4857 15.3505 31.8499 15.3505Z" fill="white"/>
<path d="M28.1747 4.82608C27.7263 4.37772 27.0008 4.37772 26.5443 4.82608L24.4655 6.90488C24.0171 7.35325 24.0008 8.0951 24.4655 8.53531C24.816 8.8614 25.7127 8.8777 26.0959 8.53531L28.1747 6.45651C28.6231 6.00815 28.6231 5.2826 28.1747 4.82608Z" fill="white"/>
</svg>
