<svg width="34" height="36" viewBox="0 0 34 36" fill="none" xmlns="http://www.w3.org/2000/svg">
<path fill-rule="evenodd" clip-rule="evenodd" d="M11.4243 14.8H5.37465C4.48698 14.7927 3.63274 15.1384 2.99987 15.7608C2.36699 16.3833 2.00732 17.2316 2 18.1192V30.6814C2.01643 32.5291 3.527 34.014 5.37465 33.9985H11.4243C12.3119 34.0059 13.1662 33.6604 13.7991 33.0379C14.432 32.4154 14.7917 31.5671 14.7989 30.6793V18.1192C14.7917 17.2316 14.432 16.3833 13.7991 15.7608C13.1662 15.1384 12.3119 14.7927 11.4243 14.8Z" stroke="white" stroke-width="3" stroke-linecap="round" stroke-linejoin="round"/>
<path fill-rule="evenodd" clip-rule="evenodd" d="M11.4243 2.00129H5.37465C3.56416 1.95107 2.05459 3.37572 2 5.18609V7.34911C2.05459 9.1595 3.56416 10.5842 5.37465 10.5339H11.4243C13.2347 10.5842 14.7443 9.1595 14.7989 7.34911V5.18609C14.7443 3.37572 13.2347 1.95107 11.4243 2.00129Z" stroke="white" stroke-width="3" stroke-linecap="round" stroke-linejoin="round"/>
<path fill-rule="evenodd" clip-rule="evenodd" d="M22.4411 21.2H28.4886C29.3766 21.2079 30.2314 20.8625 30.8647 20.24C31.498 19.6174 31.8581 18.7688 31.8654 17.8808V5.32065C31.8581 4.433 31.4984 3.5846 30.8655 2.96213C30.2326 2.33965 29.3783 1.99408 28.4907 2.00146H22.4411C21.5535 1.99408 20.6991 2.33965 20.0662 2.96213C19.4333 3.5846 19.0737 4.433 19.0664 5.32065V17.8808C19.0737 18.7684 19.4333 19.6167 20.0662 20.2392C20.6991 20.8616 21.5535 21.2072 22.4411 21.2Z" stroke="white" stroke-width="3" stroke-linecap="round" stroke-linejoin="round"/>
<path fill-rule="evenodd" clip-rule="evenodd" d="M22.4411 33.9986H28.4886C30.2998 34.05 31.8107 32.6251 31.8654 30.8138V28.6508C31.8107 26.8404 30.3011 25.4159 28.4907 25.466H22.4411C20.6307 25.4159 19.121 26.8404 19.0664 28.6508V30.8117C19.1197 32.623 20.6298 34.0488 22.4411 33.9986Z" stroke="white" stroke-width="3" stroke-linecap="round" stroke-linejoin="round"/>
</svg>
