<svg width="34" height="34" viewBox="0 0 34 34" fill="none" xmlns="http://www.w3.org/2000/svg">
<path d="M30.4419 30.8372H3.55814C3.45271 30.8372 3.36047 30.7977 3.2814 30.7186C3.20233 30.6395 3.16279 30.5473 3.16279 30.4419V3.55814C3.16279 3.45271 3.20233 3.36047 3.2814 3.2814C3.36047 3.20233 3.45271 3.16279 3.55814 3.16279H30.4419C30.5473 3.16279 30.6395 3.20233 30.7186 3.2814C30.7977 3.36047 30.8372 3.45271 30.8372 3.55814V30.4419C30.8372 30.5473 30.7977 30.6395 30.7186 30.7186C30.6395 30.7977 30.5473 30.8372 30.4419 30.8372ZM0 0.395349V33.6047C0 33.7101 0.0395349 33.8023 0.118605 33.8814C0.197674 33.9605 0.289922 34 0.395349 34H33.6047C33.7101 34 33.8023 33.9605 33.8814 33.8814C33.9605 33.8023 34 33.7101 34 33.6047V0.395349C34 0.289922 33.9605 0.197674 33.8814 0.118605C33.8023 0.0395349 33.7101 0 33.6047 0H0.395349C0.289922 0 0.197674 0.0395349 0.118605 0.118605C0.0395349 0.197674 0 0.289922 0 0.395349ZM8.06512 7.11628H10.1209C10.3845 7.11628 10.6085 7.20853 10.793 7.39302C10.9775 7.57752 11.0698 7.80155 11.0698 8.06512V10.1209C11.0698 10.3845 10.9775 10.6085 10.793 10.793C10.6085 10.9775 10.3845 11.0698 10.1209 11.0698H8.06512C7.80155 11.0698 7.57752 10.9775 7.39302 10.793C7.20853 10.6085 7.11628 10.3845 7.11628 10.1209V8.06512C7.11628 7.80155 7.20853 7.57752 7.39302 7.39302C7.57752 7.20853 7.80155 7.11628 8.06512 7.11628ZM15.9721 7.11628H25.9349C26.1985 7.11628 26.4225 7.20853 26.607 7.39302C26.7915 7.57752 26.8837 7.80155 26.8837 8.06512V10.1209C26.8837 10.3845 26.7915 10.6085 26.607 10.793C26.4225 10.9775 26.1985 11.0698 25.9349 11.0698H15.9721C15.7085 11.0698 15.4845 10.9775 15.3 10.793C15.1155 10.6085 15.0233 10.3845 15.0233 10.1209V8.06512C15.0233 7.80155 15.1155 7.57752 15.3 7.39302C15.4845 7.20853 15.7085 7.11628 15.9721 7.11628ZM8.06512 15.0233H10.1209C10.3845 15.0233 10.6085 15.1155 10.793 15.3C10.9775 15.4845 11.0698 15.7085 11.0698 15.9721V18.0279C11.0698 18.2915 10.9775 18.5155 10.793 18.7C10.6085 18.8845 10.3845 18.9767 10.1209 18.9767H8.06512C7.80155 18.9767 7.57752 18.8845 7.39302 18.7C7.20853 18.5155 7.11628 18.2915 7.11628 18.0279V15.9721C7.11628 15.7085 7.20853 15.4845 7.39302 15.3C7.57752 15.1155 7.80155 15.0233 8.06512 15.0233ZM15.9721 15.0233H25.9349C26.1985 15.0233 26.4225 15.1155 26.607 15.3C26.7915 15.4845 26.8837 15.7085 26.8837 15.9721V18.0279C26.8837 18.2915 26.7915 18.5155 26.607 18.7C26.4225 18.8845 26.1985 18.9767 25.9349 18.9767H15.9721C15.7085 18.9767 15.4845 18.8845 15.3 18.7C15.1155 18.5155 15.0233 18.2915 15.0233 18.0279V15.9721C15.0233 15.7085 15.1155 15.4845 15.3 15.3C15.4845 15.1155 15.7085 15.0233 15.9721 15.0233ZM8.06512 22.9302H10.1209C10.3845 22.9302 10.6085 23.0225 10.793 23.207C10.9775 23.3915 11.0698 23.6155 11.0698 23.8791V25.9349C11.0698 26.1985 10.9775 26.4225 10.793 26.607C10.6085 26.7915 10.3845 26.8837 10.1209 26.8837H8.06512C7.80155 26.8837 7.57752 26.7915 7.39302 26.607C7.20853 26.4225 7.11628 26.1985 7.11628 25.9349V23.8791C7.11628 23.6155 7.20853 23.3915 7.39302 23.207C7.57752 23.0225 7.80155 22.9302 8.06512 22.9302ZM15.9721 22.9302H25.9349C26.1985 22.9302 26.4225 23.0225 26.607 23.207C26.7915 23.3915 26.8837 23.6155 26.8837 23.8791V25.9349C26.8837 26.1985 26.7915 26.4225 26.607 26.607C26.4225 26.7915 26.1985 26.8837 25.9349 26.8837H15.9721C15.7085 26.8837 15.4845 26.7915 15.3 26.607C15.1155 26.4225 15.0233 26.1985 15.0233 25.9349V23.8791C15.0233 23.6155 15.1155 23.3915 15.3 23.207C15.4845 23.0225 15.7085 22.9302 15.9721 22.9302Z" fill="white"/>
</svg>
