<svg width="37" height="37" viewBox="0 0 37 37" fill="none" xmlns="http://www.w3.org/2000/svg">
<path d="M35.7984 30.2629L29.7895 24.2613C29.0539 23.5257 28.0779 23.1251 27.0363 23.1251C26.3517 23.1251 25.6889 23.3072 25.1062 23.6422L23.1688 21.7048C25.1426 19.4032 26.3371 16.417 26.3371 13.1613C26.3371 5.90693 20.4302 6.73673e-06 13.1686 6.73673e-06C5.90692 -0.00727676 0 5.89236 0 13.154C0 20.4084 5.90692 26.3153 13.1686 26.3153C16.4316 26.3153 19.4178 25.1208 21.7194 23.1542L23.6568 25.0917C23.329 25.6743 23.147 26.3299 23.147 27.0145C23.147 28.056 23.5548 29.032 24.2905 29.7677L30.3795 35.8567C32.1639 37.6411 34.888 37.0439 36.1407 35.5799C37.4153 34.0649 37.2478 31.7124 35.7984 30.2629ZM13.1686 24.2613C10.43 24.2613 7.91716 23.2635 5.97975 21.6101C6.64983 19.5125 8.21579 17.7936 10.2406 16.9414L12.3091 20.117C12.4985 20.4084 12.8262 20.5832 13.1686 20.5832C13.5182 20.5832 13.8386 20.4084 14.028 20.117L16.0965 16.9414C18.1213 17.7936 19.6873 19.5052 20.3574 21.6101C18.42 23.2562 15.9072 24.2613 13.1686 24.2613ZM15.98 14.7127C15.543 14.5816 15.0696 14.7491 14.8219 15.1351L13.1686 17.6698L11.5225 15.1351C11.2749 14.7491 10.8014 14.5816 10.3644 14.7127C7.69866 15.5211 5.53546 17.4658 4.40652 19.9568C3.45966 18.7404 2.75316 17.3202 2.3817 15.7761H3.86025C4.42837 15.7761 4.88723 15.3172 4.88723 14.7491C4.88723 14.181 4.42837 13.7221 3.86025 13.7221H2.06851C2.06123 13.5327 2.05395 13.3434 2.05395 13.1467C2.05395 12.6442 2.09036 12.1489 2.15592 11.6682H6.42405C6.99216 11.6682 7.45102 11.2093 7.45102 10.6412C7.45102 10.0731 6.99216 9.61423 6.42405 9.61423H2.63663C4.11518 5.22228 8.28134 2.04667 13.1686 2.04667C19.294 2.04667 24.2832 7.02858 24.2832 13.154C24.2832 15.7178 23.4019 18.0849 21.9379 19.9641C20.809 17.4658 18.6458 15.5284 15.98 14.7127ZM34.5529 34.2616C33.8464 35.0555 32.5208 35.0773 31.8362 34.4L25.7472 28.311C25.0698 27.6336 24.895 26.5629 25.7472 25.718C26.6503 24.8149 27.7938 25.1718 28.3401 25.718L34.349 31.7196C35.0555 32.4261 35.172 33.5624 34.5529 34.2616Z" fill="white"/>
<path d="M13.1683 3.87482C10.5972 3.87482 8.50684 5.96518 8.50684 8.53626C8.50684 11.1073 10.5972 13.1977 13.1683 13.1977C15.7394 13.1977 17.8297 11.1073 17.8297 8.53626C17.8297 5.96518 15.7394 3.87482 13.1683 3.87482ZM13.1683 11.1365C11.7334 11.1365 10.5608 9.97111 10.5608 8.53626C10.5608 7.10141 11.7261 5.93605 13.1683 5.93605C14.6104 5.93605 15.7758 7.10141 15.7758 8.53626C15.7758 9.97111 14.6031 11.1365 13.1683 11.1365Z" fill="white"/>
</svg>
