<svg width="196" height="196" viewBox="0 0 196 196" fill="none" xmlns="http://www.w3.org/2000/svg">
<circle cx="98" cy="98" r="98" fill="black" fill-opacity="0.8"/>
<path d="M86.1959 155.664C84.8458 155.664 83.5121 155.366 82.2894 154.792C81.0667 154.217 79.9849 153.379 79.1207 152.338L47.9537 114.79C47.0918 113.871 46.4265 112.784 45.9988 111.596C45.571 110.409 45.3898 109.147 45.4663 107.886C45.5428 106.626 45.8753 105.395 46.4435 104.269C47.0117 103.142 47.8035 102.144 48.7702 101.336C49.7369 100.529 50.8581 99.9275 52.0649 99.5704C53.2716 99.2134 54.5384 99.1078 55.7873 99.2601C57.0363 99.4125 58.2409 99.8197 59.3273 100.457C60.4136 101.093 61.3586 101.946 62.1042 102.963L84.8077 130.311L133.914 44.9606C135.137 42.8357 137.151 41.2855 139.514 40.6509C141.876 40.0163 144.393 40.3495 146.51 41.577C148.628 42.8045 150.173 44.8259 150.805 47.1964C151.438 49.5669 151.106 52.0924 149.882 54.2173L94.1668 151.026C93.4246 152.316 92.3833 153.407 91.1313 154.206C89.8793 155.006 88.4536 155.49 86.9751 155.619C86.7131 155.644 86.4501 155.656 86.187 155.655L86.1959 155.664Z" fill="#34A853"/>
</svg>
